<svg version="1.2" xmlns="http://www.w3.org/2000/svg" viewBox="0 0 512 512" width="512" height="512"><style>.a{opacity:1}.b{opacity:1;fill:#e3e4e5}.c{fill:#53565a}.d{fill:#c66b60}.e{fill:#a8b0bb}.f{fill:#efbe9a}</style><path class="a" d="m301 9.3c-1.4 0.7-7 4.7-12.5 8.9-5.5 4.2-11.2 8.9-12.6 10.4-1.5 1.6-3.8 4.7-5.1 6.9-1.4 2.2-3 5.6-3.7 7.5-0.7 1.9-1.6 6-2.1 9-0.4 3-0.4 8.2 0.1 11.5 0.4 3.3 1.7 8 2.7 10.5 1.1 2.5 3.6 6.6 5.6 9.2l3.6 4.8c-11.6 1.5-17.6 3.2-20.8 4.7-3.2 1.5-8.1 5.1-11.3 8.2-3 3.1-6.7 8.1-8.1 11.1-1.5 3-3.1 8.4-3.7 12-0.6 3.6-1.1 9.8-1.1 13.8v7.2c-6.6 0.8-33.9 3.3-65 6.1-37.1 3.3-59.2 5.7-64.5 7-4.4 1-11.6 3.6-16 5.7-4.4 2.1-10.7 6-14 8.7-3.3 2.7-9.4 6.4-13.5 8.3-4.1 1.9-10.2 5.3-13.5 7.5-3.3 2.3-8.9 7.1-12.5 10.7-3.6 3.6-8.9 10.3-11.8 15-3.1 5-6.5 12.3-8.2 17.8-1.7 5.3-3.4 13.5-4 19.4-0.7 6.5-1 37.9-0.8 84.8l0.3 74.5c3.6 7.8 5.7 11.5 7.1 13.3 1.3 1.7 8.6 7.8 16.1 13.5 10.3 7.7 14.4 10.2 16.5 10.1 1.6 0 3.9-1.1 5.1-2.3 2.1-2.1 2.2-2.9 2.2-22.9 0-16.9-0.3-21.6-1.7-25.7-1-2.9-3.7-7.2-6.5-10.3-3.6-4-7.2-6.6-14-10l-9.3-4.7c0-114.1 0.2-123.9 1.6-129.5 0.9-3.6 3.3-10.1 5.4-14.5 2.4-4.9 6.2-10.5 9.8-14.5l6-6.5c-3.7 13.9-5 20.9-5.4 24.5-0.4 3.8 0.9 29.7 3.1 63l3.6 56.5 24.4 97.5c-7.2 7.4-10.5 11.9-11.9 14.8-1.4 2.8-3.1 8.5-3.7 12.5-0.6 3.9-0.9 10.9-0.8 15.4 0.3 7 0.8 8.6 2.7 10.5l2.3 2.3h101.8c4.2-4.1 4.7-5.9 5-11.8 0.2-4-0.2-10.9-0.8-15.4-0.7-5.2-2.1-10.3-3.8-13.5-1.4-2.9-4.7-7.5-7.2-10.2-2.5-2.6-6.3-5.7-8.3-6.7-3.1-1.5-3.7-2.3-3.3-4.1 0.2-1.3 0.9-5.7 1.5-9.8 0.6-4.1 1.7-13.1 2.6-20 0.8-6.9 1.8-19.8 2.2-28.8 0.4-8.9 1-16.2 1.5-16.2 0.4 0 1.4 2.4 2.3 5.3 0.9 2.8 2.7 7 3.9 9.2 1.3 2.2 4.7 6.4 7.7 9.3 2.9 3 8.1 6.9 11.6 8.8l6.2 3.4v21h16v-16.5h16v16.5h16v-21c9.5-5 14.9-9.2 18.2-12.5 3.5-3.5 7.1-8.5 8.8-12l2.9-6c16-2.9 25.1-5 30.6-6.6 5.5-1.5 10.7-3 11.5-3.3 1.3-0.5 1.9 2.7 3.8 20.1 1.3 11.5 3.7 28.2 5.2 37.3 1.6 9.1 3.6 19.4 4.4 23l1.5 6.5c-6 6.2-8.9 10.4-10.3 13.3-1.4 2.8-3.1 8.5-3.7 12.5-0.6 3.9-0.9 10.9-0.8 15.4 0.3 7 0.8 8.6 2.7 10.5l2.3 2.3h101.8c4.2-4.1 4.7-5.9 5-11.8 0.2-4-0.2-10.9-0.8-15.4-0.7-5.1-2.1-10.3-3.8-13.5-1.4-2.9-4.9-7.7-7.7-10.6-2.8-2.9-6.4-5.8-7.9-6.5-1.5-0.7-2.8-1.5-2.7-1.9 0-0.5 0.9-4.3 1.9-8.5 1.1-4.3 3.1-13.7 4.5-20.8 1.3-7.1 3.4-20.4 4.6-29.5 1.1-9.1 2.4-25.1 2.8-35.5l0.8-19c6.4-13.2 9.2-19.7 10.3-23 1-3.3 2.6-9.5 3.5-13.7 0.9-4.3 1.6-10 1.6-12.8 0-2.7 0.3-5.7 0.8-6.6 0.4-0.9 2.5-2.6 4.7-3.7 2.2-1 6.4-3.8 9.4-6.1 3-2.2 7.1-6.3 9.2-9.1 2.1-2.7 4.8-7.4 5.9-10.2 1.7-4.4 2.5-12.5 5.1-49 1.7-24.1 3.2-43.9 3.3-44.1 0-0.1 2.8 1.2 6.1 2.8 4.1 2.1 8.7 3.4 14.5 4.1 4.7 0.6 10.5 0.9 13 0.6 2.7-0.4 5.3-1.4 6.5-2.7 1.7-1.7 2.1-3.7 2.3-12.8 0.2-5.9-0.1-14.2-0.7-18.4-0.6-4.3-2.3-10.4-3.8-13.5-1.5-3.3-5.1-8.2-8.2-11.4-3.2-3.1-8.1-6.7-11.3-8.2-3.2-1.5-9.2-3.2-13.3-3.7l-7.5-1c5.6-7.4 8.1-11.5 9.2-14 1-2.5 2.3-7.4 2.8-11 0.5-3.9 0.5-8.7-0.1-12-0.5-3-2.2-8.2-3.7-11.5-1.6-3.3-4.6-8-6.8-10.4-2.1-2.4-8.8-8-14.9-12.4-7.8-5.8-11.8-8.1-13.8-8.1-1.5 0-3.7 0.9-4.8 2-1.6 1.4-2.2 3.9-2.9 10.4-0.4 4.7-1.3 10.5-2 13-0.7 2.5-2.4 7.4-3.9 10.9l-2.6 6.3c-6.2-1-10.7-1.8-14-2.3-3.3-0.5-18.4-0.9-33.5-0.9-15.1 0-30.2 0.4-33.5 0.9-3.3 0.5-7.8 1.3-10 1.6l-4 0.7c-4.1-9.8-5.8-14.7-6.5-17.2-0.7-2.5-1.6-8.3-2-13-0.6-6.2-1.4-8.9-2.7-10.1-1-1-2.7-2-3.8-2.3-1.1-0.3-3.2 0-4.5 0.7z"/><path class="b" d="m335 65c-3.6 0.5-9 1.8-12 3-3 1.2-7.9 3.8-10.9 5.8-3 2.1-7.3 5.7-9.5 8.2-2.3 2.5-5.3 6.6-6.8 9-1.4 2.5-3.6 7.4-4.8 11-1.6 4.9-2.1 8.8-2.1 16 0 5.2 1.2 25 2.6 44 1.4 19 2.5 35.5 2.5 36.8 0 2.1 0.2 2.1 4.8-1.2 2.6-1.9 8.1-5 12.2-6.9 4.1-1.9 10.8-4.2 14.8-5.1 4.3-1 11.7-1.6 18.4-1.6 6.5 0 14 0.7 17.6 1.5 5.5 1.3 6.9 1.3 12.4 0 3.7-0.9 11.1-1.5 17.8-1.5 6.7 0 14.2 0.7 18 1.5 3.6 0.9 9 2.5 12 3.7 3 1.1 8.7 4.2 12.6 6.7l7.1 4.6c1-12.4 1.3-17.9 1.3-20.2v-4.3c-16.8 0-24.3-0.7-28-1.6-3.6-0.8-10.1-3.2-14.5-5.4-4.4-2.1-10.7-6-14-8.7-3.2-2.6-8.1-7.5-10.8-10.8-2.6-3.3-6.6-9.6-8.7-14-2.2-4.4-4.6-10.9-5.4-14.5-0.9-3.7-1.6-11.1-1.6-17 0-6 0.7-13.3 1.6-17 0.8-3.6 3.2-9.9 5.2-14 2-4.1 3.7-7.8 3.9-8.2 0.2-0.5-6.3-0.7-14.4-0.7-8.2 0.1-17.7 0.5-21.3 0.9zm-67.5 91.4c-5.3 2.6-7.5 3-19 3.7-7.2 0.4-18.6 1.2-25.5 1.8-6.9 0.7-13.8 1.4-15.5 1.7l-3 0.5c3.3 10.2 3.6 13.7 3.3 21.9-0.3 9.8-0.6 11.1-4.2 18.5-2.6 5.4-5.6 9.8-9.5 13.6-3.8 3.8-8.2 6.9-13.6 9.5-8 3.9-8 3.9-20.5 3.9-12.5 0-12.5 0-20.5-3.9-5.4-2.6-9.8-5.7-13.6-9.5-3.8-3.8-6.9-8.2-9.5-13.6-3.9-7.9-3.9-8.1-3.9-20.2v-12.2c-3.9 0.8-7.2 1.7-10 2.6-2.7 0.8-7.5 2.8-10.5 4.3-3 1.5-8.2 5-11.4 7.6-3.3 2.7-8 7.8-10.5 11.4-2.5 3.6-5.8 9.4-7.3 13-1.4 3.6-3.4 10.1-4.3 14.5-0.9 4.4-1.5 11.1-1.3 15l0.3 7c9.5 1.2 15.1 3 19.5 5.1 4.9 2.4 9.5 5.6 13.1 9.3 3.8 3.8 6.9 8.2 9.5 13.6 3.9 8 3.9 8 3.9 20.5 0 12.5 0 12.5-3.9 20.5-2.6 5.4-5.6 9.8-9.5 13.6-3.1 3.1-8.3 7-11.6 8.6-3.3 1.7-7.9 3.6-10.3 4.2-3.7 1-4.2 1.4-4.2 3.8 0 1.6 5.1 23 11.3 47.8l11.3 45 9.9 0.6c2.9-17.5 5.6-30.2 8-39.6 2.4-9.4 6.4-23.1 8.9-30.5 2.6-7.4 7-18.9 9.8-25.5 2.8-6.6 6.9-15.6 9.1-20 2.1-4.4 4.1-8.1 4.3-8.2 0.2-0.2 3.6 1.3 7.4 3.2 3.8 1.9 7 3.8 7 4.3 0 0.4-2.3 5.6-5.1 11.7-2.8 6.1-4.7 11.3-4.3 11.7 0.5 0.4 6.1 2.1 12.4 3.8 6.3 1.7 17.1 4 24 5.1 6.9 1.1 19.2 2.4 27.5 2.8 8.2 0.4 21.7 0.4 30 0 8.2-0.5 20.4-1.8 27-2.9 6.6-1.1 15.6-3 20-4.1 4.4-1.1 11-2.9 14.7-4l6.8-1.9v-26c15.5 0 16 0.1 16.4 2.3 0.3 1.2 0.7 11.2 1 22.2 0.3 11 1.3 26.5 2.1 34.5 0.9 8 2.3 19 3.1 24.5 0.8 5.5 2.6 16.1 4 23.5l2.5 13.5c15.6-0.6 19.7-1.2 20.1-1.9 0.3-0.6 1.3-10.1 2.2-21.1 0.9-11 2.1-26.7 2.6-35 0.5-8.2 1-22.4 1-31.5 0-9.1 0.3-18 0.7-19.8l0.8-3.2h15.5v15.5c4.8-4.6 8.9-9.6 12.2-14 3.3-4.4 7.8-11.6 9.9-16 2.1-4.4 4.7-11.4 5.8-15.5 1.2-4.1 2.4-10 2.7-13l0.6-5.5c-22 0.6-27.6 0.2-32.5-0.9-6-1.4-7.4-1.4-13-0.1-3.5 0.8-11 1.5-17.5 1.5-6.6 0-14.2-0.7-18.5-1.6-3.9-0.9-11.3-3.5-16.2-5.9-5.2-2.5-11.3-6.3-14.5-9.2-3-2.7-7-7.2-8.7-9.9-1.8-2.7-4-7.1-4.8-9.9-1-3.2-2.7-20.6-4.6-47.5-1.7-23.4-3.1-42.5-3.2-42.5-0.1 0-2.9 1.3-6.2 2.9z"/><path class="c" d="m389.4 68.3c-2 2.3-4.8 6.7-6.4 9.7-1.5 3-3.6 8.2-4.6 11.5-1.1 3.9-1.7 9.1-1.6 15 0 6.1 0.7 11.1 2.1 15.5 1.1 3.6 3.6 9.2 5.6 12.5 2 3.3 5.3 7.7 7.3 9.9 2 2.1 6.4 5.6 9.7 7.8 3.3 2.1 8.5 4.8 11.5 5.9 3 1.1 8.7 2.4 12.5 2.9 3.9 0.4 9.5 0.5 12.7 0.1 3.1-0.3 5.8-0.8 6.1-1.1 0.3-0.3 1.2-9.5 2-20.5 0.9-12.7 1.2-22.4 0.6-26.5-0.4-3.6-1.5-8.5-2.4-11-0.9-2.5-2.8-6.5-4.2-9-1.5-2.5-4.7-6.7-7.2-9.4-2.5-2.7-7.3-6.7-10.6-8.8-3.3-2.2-8.9-4.7-12.5-5.8-3.6-1-8.9-2.1-11.7-2.4-5.2-0.5-5.3-0.4-8.9 3.7zm-228.4 99.3c-12.9 1.2-24.8 2.3-26.5 2.3-2.7 0-3.2 0.5-4.5 4.8-0.8 2.6-1.5 7.1-1.4 9.8 0.1 2.8 0.9 7.5 1.9 10.5 1.4 4 3.3 7 7.4 11.1 4.1 4.1 7.1 6.1 11.1 7.4 3 1 8 1.8 11 1.8 3 0 7.8-0.7 10.5-1.6 2.8-0.9 7.2-3.5 10-6 2.8-2.4 6-6.3 7.2-8.8 1.3-2.4 2.7-6.9 3.3-9.9 0.8-3.9 0.7-7 0-10.5-0.6-2.7-2-6.9-3-9.2-1.1-2.4-2.3-4.2-2.7-4.2-0.5 0.1-11.4 1.2-24.3 2.5zm-102 100.7c0 1.7 0.7 14.2 1.5 27.7 0.9 13.5 1.8 26 2 27.8l0.5 3.2c7.8-2.8 11.5-5.3 15.1-8.9 4.1-4.1 6.1-7.1 7.4-11.1 1-3 1.8-8 1.8-11 0-3-0.8-8-1.8-11-1.3-4-3.3-7-7.4-11.1-3.9-3.8-7.2-6.1-10.6-7.2-2.7-1-5.8-1.7-6.7-1.7-1.4 0-1.8 0.8-1.8 3.3zm-34.9 131c0.3 6.9 0.9 10 2.4 12.4 1.1 1.7 4.5 5 7.5 7.3l5.5 4.1c0.5-10.5 0.4-15.4 0-17.6-0.3-2.2-1.4-5.5-2.5-7.2-1.2-1.9-4.1-4.3-7-5.8-2.7-1.4-5.3-2.5-5.6-2.5-0.4 0-0.5 4.2-0.3 9.3zm65.8 58c-2.6 0.7-6.4 2.6-8.5 4.3-2.2 1.7-4.9 5.1-6.2 7.5-1.3 2.6-2.5 7.3-3 11.7l-0.7 7.2h16.5v-16h16v16h16.5c-1-10.5-2-15.1-2.8-17-0.7-1.9-2.5-4.9-3.9-6.5-1.3-1.6-4.4-4-6.9-5.2-2.4-1.2-6.2-2.4-8.4-2.7-2.2-0.3-6.1 0-8.6 0.7zm39.4-0.5c0.2 0.4 1.6 3.4 3.2 6.7 2.4 5.1 3 7.5 3.2 15.3l0.3 9.2h16c0-6.6-0.5-10.5-1.1-13-0.5-2.5-2.1-6.2-3.4-8.2-1.4-2.1-4.2-4.9-6.2-6.3-2.1-1.3-5.7-2.9-8-3.5-2.4-0.5-4.2-0.7-4-0.2zm208.6 0.5c-2.6 0.7-6.4 2.6-8.5 4.3-2.2 1.7-4.9 5.1-6.2 7.5-1.3 2.6-2.5 7.3-3 11.7l-0.7 7.2h16.5v-16h16v16h16.5c-1-10.5-2-15.1-2.8-17-0.7-1.9-2.5-4.9-3.9-6.5-1.3-1.6-4.4-4-6.9-5.2-2.4-1.2-6.2-2.4-8.4-2.7-2.2-0.3-6.1 0-8.6 0.7zm39.4-0.5c0.2 0.4 1.6 3.4 3.2 6.7 2.4 5.1 3 7.5 3.2 15.3l0.3 9.2h16c0-6.6-0.5-10.5-1.1-13-0.5-2.5-2.1-6.2-3.4-8.2-1.4-2.1-4.2-4.9-6.2-6.3-2.1-1.3-5.7-2.9-8-3.5-2.4-0.5-4.2-0.7-4-0.2z"/><path class="d" d="m268 105.3c-2.5 0.7-6.3 2.3-8.3 3.7-2.1 1.4-5 4.3-6.5 6.5-1.5 2.1-3.3 6.2-4 9-0.6 2.7-1.2 8.3-1.2 12.3v7.2c6.6-0.9 10.8-2.2 13.5-3.5 2.8-1.3 6.2-3.7 7.7-5.2 2.6-2.7 2.6-3.2 3-17.1 0.1-7.8 0.3-14.2 0.3-14.1 0 0-2 0.6-4.5 1.2zm195.7 13.1c0.5 13.6 0.6 14.2 3.1 16.9 1.5 1.5 5 3.9 7.7 5.2 2.8 1.3 7 2.7 9.5 3.1l4.5 0.7c-1-16.5-1.8-21.3-3.2-24.3-1.1-2.5-3.5-6-5.4-7.9-1.9-1.8-4.6-4-6.1-4.7-1.6-0.8-4.5-1.8-6.6-2.2l-3.9-0.9zm-131.2 83.1c-3.9 0.7-9.1 2.1-11.5 3-2.5 0.9-6.1 2.6-8 3.7-2 1.2-5.5 4-7.9 6.2-2.3 2.3-5.2 5.9-6.4 8.1-1.3 2.6-2 5.9-2 9.5 0 3.6 0.7 6.9 2 9.5 1.1 2.2 4.2 6.1 6.9 8.6 2.7 2.5 7.3 5.7 10.4 7.2 3 1.5 8.4 3.4 12 4.4 3.7 0.9 10.3 1.7 15.5 1.7 5.3 0 12.3-0.7 17-1.8 7.8-1.8 8.2-1.8 15.5 0 4.5 1.1 11 1.8 16.5 1.8 5.2 0 11.7-0.7 15.5-1.7 3.5-1 8.8-2.9 11.7-4.2 2.9-1.4 7.6-4.6 10.4-7.2 2.8-2.6 6-6.6 7.1-8.8 1.4-2.6 2.1-5.9 2.1-9.5 0-3.6-0.7-6.9-2.1-9.5-1.1-2.2-4.3-6.1-7.1-8.7-2.8-2.6-7.5-5.9-10.4-7.2-2.9-1.4-8.2-3.3-11.7-4.2-3.8-1-10.3-1.7-15.5-1.8-5.4 0-12.3 0.8-17 1.9-7.5 1.7-8.4 1.7-14.5 0.2-3.6-0.9-9.9-1.8-14-2.1-4.5-0.3-10.3 0-14.5 0.9zm-160.8 171.7c0.2 0.5 2.2 3 4.7 5.6 2.4 2.6 6.7 6 9.7 7.5 3 1.5 9 3.5 13.4 4.4 7.4 1.5 8.6 1.5 16.5 0 4.6-0.9 10.7-2.8 13.5-4.2 2.7-1.4 6.8-4.3 9-6.4l4-3.9c-41.1-0.9-57.1-1.7-62-2.5-4.9-0.7-8.9-0.9-8.8-0.5z"/><path class="e" d="m384.9 357.7c-3 2.5-6.2 5.1-7.1 5.7-1.5 0.9-1.9 3.8-2.8 18.1-0.5 9.4-1.7 25.3-2.5 35.5-0.9 10.2-1.8 19.5-2 20.8-0.5 2-0.2 2.2 3.2 2 3.5-0.3 3.7-0.5 5-5.3 0.7-2.7 2.4-10.4 3.7-17 1.4-6.6 3.4-18.3 4.5-26 1.1-7.7 2.5-19.4 3.2-25.9 0.6-6.5 0.9-12 0.7-12.1-0.3-0.2-2.9 1.8-5.9 4.2zm-252.4 9.1c-0.9 2-3.4 9.3-5.6 16.2-2.2 6.9-5.3 17.9-6.9 24.5-1.6 6.6-3.8 16.9-4.8 23-1.1 6.1-1.8 11.1-1.6 11.3 0.2 0.1 1.9-0.3 3.7-0.8 1.7-0.6 5-1 7.2-1h4c3.6-26 4.8-35.7 5.2-38.5 0.3-2.7 0.8-12.5 1.2-21.8 0.3-9.2 0.3-16.7-0.1-16.7-0.4 0-1.5 1.7-2.3 3.8z"/><path class="f" d="m291.5 35.8c-2.6 2-5.8 5.5-7.1 7.7-1.2 2.2-2.8 6.3-3.4 9-0.8 3.6-0.8 6.4 0 10 0.6 2.8 1.9 6.5 3 8.3l2 3.2c9.7-9 14.1-12.7 16-14 1.9-1.3 3.6-2.4 3.8-2.4 0.1-0.1-1.1-3-2.7-6.6-1.6-3.6-3.6-9.2-4.5-12.5-0.9-3.3-1.8-6.1-1.9-6.2-0.2-0.1-2.5 1.5-5.2 3.5zm146.6 0.4c-0.6 2.4-2.5 7.7-4.2 11.8-1.6 4.1-3.2 8-3.4 8.5-0.2 0.5 2.1 2.8 5.2 5 3 2.2 7.3 5.9 9.4 8.3 2.4 2.6 4.4 3.9 5.1 3.5 0.7-0.5 2.1-2.8 3.2-5.3 1.2-2.8 2-6.8 2-10.5 0-4.5-0.6-7.4-2.6-11.5-1.6-3.3-4.4-6.9-7-9.1-2.3-1.9-4.8-3.9-5.5-4.3-0.7-0.4-1.5 0.8-2.2 3.6z"/><path class="a" d="m312.1 121.3c-1.9 0.7-4.3 2.3-5.3 3.7-1.3 1.6-2 4.1-2 7 0 2.9 0.7 5.4 2 7 1 1.4 3.4 3 5.3 3.7 1.9 0.6 4.8 0.8 6.4 0.5 1.6-0.4 4.1-1.8 5.5-3.2 1.4-1.4 2.8-3.8 3.2-5.5 0.3-1.7 0.1-4.5-0.5-6.4-0.7-1.9-2.3-4.2-3.7-5.2-1.4-0.9-3.6-1.9-5-2.2-1.4-0.3-4 0-5.9 0.6zm104.4-0.2c-1.7 0.5-3.8 1.7-4.8 2.7-1 0.9-2.3 3.3-2.9 5.2-0.8 2.8-0.7 4.3 0.6 7.3 0.9 2 2.8 4.5 4.3 5.4 1.6 0.9 4.6 1.6 6.8 1.6 2.3-0.1 5.1-1 6.5-2.1 1.4-1 3.1-3.5 3.7-5.5 1-3 1-4.4 0-7.4-0.6-2-2.3-4.4-3.7-5.4-1.4-0.9-3.6-1.9-5-2.2-1.4-0.3-3.9-0.1-5.5 0.4zm-96.4 96.2c-1.9 0.7-4.3 2.3-5.3 3.7-1.3 1.6-2 4.1-2 7 0 2.9 0.7 5.4 2 7 1 1.4 3.4 3 5.3 3.7q3.4 1.2 6.9 0.3c1.9-0.5 4.3-1.7 5.2-2.7 1-1 2.2-3.3 2.8-5 0.7-2.4 0.7-4.3-0.3-7-0.6-2-2.3-4.4-3.7-5.4-1.4-0.9-3.6-1.9-5-2.2-1.4-0.3-4 0-5.9 0.6zm88 0c-1.9 0.7-4.3 2.3-5.3 3.7-1.3 1.6-2 4.1-2 7 0 2.9 0.7 5.4 2 7 1 1.4 3.4 3 5.3 3.7q3.4 1.2 6.9 0.3c1.9-0.5 4.3-1.7 5.2-2.7 1-1 2.2-3.3 2.8-5 0.7-2.4 0.7-4.3-0.3-7-0.6-2-2.3-4.4-3.7-5.4-1.4-0.9-3.6-1.9-5-2.2-1.4-0.3-4 0-5.9 0.6zm-206.6 15.9c-3.6 0.5-8.4 2.2-11.9 4.1-3.2 1.8-7.8 5.3-10.2 8-2.4 2.6-5.6 7.3-7.1 10.5-1.4 3.1-2.9 8-3.3 10.7-0.4 2.8-0.4 7.5 0 10.5 0.4 3 1.9 8.1 3.3 11.3 1.5 3.1 4.8 8 7.4 10.8 2.8 2.9 7.4 6.3 10.8 8 3.3 1.6 8.5 3.3 11.5 3.7 3 0.4 6.1 1.1 6.7 1.5 0.7 0.4 1.3 1.3 1.3 2 0 0.6 1.3 3.9 2.9 7.2 1.7 3.4 5.1 8 8 10.8 2.8 2.6 7.7 5.9 10.8 7.4 3.2 1.4 8.3 2.9 11.3 3.3 3 0.4 7.7 0.4 10.5 0 2.7-0.4 7.6-1.9 10.7-3.3 3.2-1.5 8.1-4.8 10.9-7.5 2.9-2.7 6.3-7.3 8-10.7 1.6-3.3 3.3-8.7 3.8-12 0.4-3.3 0.4-8.5 0-11.5-0.5-3-2.2-8.2-3.8-11.5-1.7-3.4-5.1-8-8-10.8-2.8-2.6-7.7-5.9-10.9-7.4-3.1-1.4-8-2.9-10.7-3.2-2.8-0.4-5.6-1-6.3-1.4-0.6-0.4-1.2-1.3-1.2-1.9 0-0.7-1.1-3.7-2.5-6.5-1.4-2.9-4.4-7.4-6.8-9.9-2.3-2.6-6-5.7-8.2-7-2.2-1.3-6-3-8.5-3.8-2.5-0.8-6.3-1.6-8.5-1.8-2.2-0.2-6.7 0-10 0.4z"/><path class="c" d="m201.9 249.3c-2.6 0.7-6.4 2.6-8.5 4.3-2.2 1.7-5 5.3-6.4 8-1.7 3.4-2.4 6.5-2.4 10.4 0 3.9 0.7 7 2.5 10.5 1.4 2.7 4.3 6.4 6.5 8.1 2.1 1.7 6.1 3.5 8.9 4.1 2.9 0.7 6.9 0.8 9.5 0.4 3.1-0.6 5.5-0.4 7.7 0.5 2.1 0.9 3.4 2.3 3.7 3.6 0.2 1.3 0.9 5 1.5 8.3 0.6 3.3 2.2 7.7 3.6 9.7 1.4 2.1 4.2 4.9 6.2 6.3 2.1 1.3 5.9 2.9 8.5 3.5 3.4 0.7 6.2 0.7 9.5 0 2.7-0.6 6.5-2.2 8.5-3.5 2.1-1.4 4.9-4.2 6.3-6.3 1.3-2 2.9-5.8 3.5-8.5 0.7-3.4 0.7-6.1-0.2-10-0.6-2.8-2.5-7-4.2-9.1-1.7-2.2-5.4-5.1-8.1-6.5-4.4-2.2-6.1-2.5-13.8-2.3-7.5 0.2-9-0.1-10.7-1.8-1.2-1.2-2-3.3-2-5.3 0-1.7-0.6-5.5-1.5-8.2-0.8-2.8-2.7-6.6-4.3-8.5-1.6-1.9-4.8-4.5-7.3-5.7-2.4-1.2-6.2-2.4-8.4-2.7-2.2-0.3-6.1 0-8.6 0.7z"/></svg>